<?xml version="1.0" encoding="utf-8"?>
<!-- Generator: Adobe Illustrator 27.1.1, SVG Export Plug-In . SVG Version: 6.00 Build 0)  -->
<svg version="1.1" id="圖層_1" xmlns="http://www.w3.org/2000/svg" xmlns:xlink="http://www.w3.org/1999/xlink" x="0px" y="0px"
	 viewBox="0 0 27 21" style="enable-background:new 0 0 27 21;" xml:space="preserve">
<style type="text/css">
	.st0{fill:#DBC5A4;}
</style>
<path class="st0" d="M26.9,4.7l-3.1,9.8c-0.2,0.7-0.9,1.2-1.6,1.2H10.1c-0.7,0-1.4-0.4-1.6-1.1L3.8,2.3H1.2C0.5,2.3,0,1.8,0,1.2
	C0,0.5,0.5,0,1.2,0h3.5c0.5,0,0.9,0.3,1.1,0.8l4.8,12.6h11.2l2.5-7.8H10.4C9.7,5.5,9.2,5,9.2,4.4c0-0.6,0.5-1.2,1.2-1.2h15.4
	c0.4,0,0.7,0.2,0.9,0.5C27,4,27.1,4.4,26.9,4.7z M10.7,17.2c-0.5,0-1,0.2-1.3,0.6c-0.4,0.3-0.6,0.8-0.6,1.3c0,0.5,0.2,1,0.6,1.3
	c0.4,0.3,0.9,0.6,1.3,0.6s1-0.2,1.4-0.6c0.4-0.3,0.6-0.8,0.6-1.3c0-0.5-0.2-1-0.6-1.3C11.7,17.4,11.2,17.2,10.7,17.2z M21.2,17.2
	c-0.5,0-1,0.2-1.4,0.6c-0.4,0.3-0.6,0.8-0.6,1.3c0,0.5,0.2,1,0.6,1.3c0.4,0.3,0.9,0.6,1.4,0.6s1-0.2,1.4-0.6
	c0.4-0.3,0.6-0.8,0.6-1.3c0-0.5-0.2-1-0.6-1.3C22.2,17.4,21.7,17.2,21.2,17.2z"/>
</svg>
